<mxfile host="app.diagrams.net" modified="2023-10-17T21:05:03.060Z" agent="Mozilla/5.0 (Windows NT 10.0; Win64; x64) AppleWebKit/537.36 (KHTML, like Gecko) Chrome/118.0.0.0 Safari/537.36" etag="5sfx3kRhDOu0NT0mBRMX" version="22.0.4" type="github">
  <diagram name="PÃ¡gina-1" id="8sz6D4rHo0GLzLMPaq7D">
    <mxGraphModel dx="1707" dy="1647" grid="1" gridSize="10" guides="1" tooltips="1" connect="1" arrows="1" fold="1" page="1" pageScale="1" pageWidth="827" pageHeight="1169" math="0" shadow="0">
      <root>
        <mxCell id="0" />
        <mxCell id="1" parent="0" />
        <mxCell id="fAYxCIKbN-mQUrRIL_h8-1" value="" style="verticalLabelPosition=bottom;verticalAlign=top;html=1;shape=card;whiteSpace=wrap;size=20;arcSize=12;fillColor=#e1d5e7;strokeColor=#9673a6;" parent="1" vertex="1">
          <mxGeometry x="-200" y="-450" width="265" height="1170" as="geometry" />
        </mxCell>
        <mxCell id="fAYxCIKbN-mQUrRIL_h8-2" style="edgeStyle=orthogonalEdgeStyle;rounded=0;orthogonalLoop=1;jettySize=auto;html=1;exitX=0.5;exitY=1;exitDx=0;exitDy=0;exitPerimeter=0;fillColor=#a20025;strokeColor=#6F0000;" parent="1" source="fAYxCIKbN-mQUrRIL_h8-3" edge="1">
          <mxGeometry relative="1" as="geometry">
            <mxPoint x="235.02173913043475" y="-270" as="targetPoint" />
          </mxGeometry>
        </mxCell>
        <mxCell id="fAYxCIKbN-mQUrRIL_h8-3" value="&lt;font style=&quot;font-size: 20px;&quot;&gt;Inicio&lt;/font&gt;" style="strokeWidth=2;html=1;shape=mxgraph.flowchart.start_1;whiteSpace=wrap;fillColor=#f8cecc;strokeColor=#b85450;" parent="1" vertex="1">
          <mxGeometry x="185" y="-350" width="100" height="60" as="geometry" />
        </mxCell>
        <mxCell id="fAYxCIKbN-mQUrRIL_h8-4" value="&lt;font style=&quot;font-size: 20px;&quot;&gt;Fin&lt;/font&gt;" style="strokeWidth=2;html=1;shape=mxgraph.flowchart.terminator;whiteSpace=wrap;fillColor=#f8cecc;strokeColor=#b85450;" parent="1" vertex="1">
          <mxGeometry x="185" y="200" width="100" height="60" as="geometry" />
        </mxCell>
        <mxCell id="fAYxCIKbN-mQUrRIL_h8-8" style="edgeStyle=orthogonalEdgeStyle;rounded=0;orthogonalLoop=1;jettySize=auto;html=1;fillColor=#008a00;strokeColor=#005700;" parent="1" source="fAYxCIKbN-mQUrRIL_h8-9" target="fAYxCIKbN-mQUrRIL_h8-11" edge="1">
          <mxGeometry relative="1" as="geometry" />
        </mxCell>
        <mxCell id="fAYxCIKbN-mQUrRIL_h8-9" value="3" style="verticalLabelPosition=middle;verticalAlign=middle;html=1;shape=hexagon;perimeter=hexagonPerimeter2;arcSize=6;size=0.27;labelPosition=center;align=center;fillColor=#d5e8d4;strokeColor=#82b366;fontSize=16;" parent="1" vertex="1">
          <mxGeometry x="-147.5" y="-360" width="140" height="80" as="geometry" />
        </mxCell>
        <mxCell id="fAYxCIKbN-mQUrRIL_h8-10" style="edgeStyle=orthogonalEdgeStyle;rounded=0;orthogonalLoop=1;jettySize=auto;html=1;exitX=0.5;exitY=1;exitDx=0;exitDy=0;entryX=1;entryY=0.5;entryDx=0;entryDy=0;fillColor=#008a00;strokeColor=#005700;" parent="1" source="fAYxCIKbN-mQUrRIL_h8-11" target="fAYxCIKbN-mQUrRIL_h8-9" edge="1">
          <mxGeometry relative="1" as="geometry">
            <Array as="points">
              <mxPoint x="-77.5" y="-200" />
              <mxPoint x="12.5" y="-200" />
              <mxPoint x="12.5" y="-320" />
            </Array>
          </mxGeometry>
        </mxCell>
        <mxCell id="fAYxCIKbN-mQUrRIL_h8-11" value="turnleft();" style="rounded=1;whiteSpace=wrap;html=1;absoluteArcSize=1;arcSize=14;strokeWidth=2;fillColor=#d5e8d4;strokeColor=#82b366;fontSize=12;" parent="1" vertex="1">
          <mxGeometry x="-127.5" y="-250" width="100" height="30" as="geometry" />
        </mxCell>
        <mxCell id="fAYxCIKbN-mQUrRIL_h8-58" style="edgeStyle=orthogonalEdgeStyle;rounded=0;orthogonalLoop=1;jettySize=auto;html=1;exitX=0.5;exitY=1;exitDx=0;exitDy=0;entryX=0.5;entryY=0;entryDx=0;entryDy=0;" parent="1" source="fAYxCIKbN-mQUrRIL_h8-13" target="fAYxCIKbN-mQUrRIL_h8-35" edge="1">
          <mxGeometry relative="1" as="geometry" />
        </mxCell>
        <mxCell id="fAYxCIKbN-mQUrRIL_h8-13" value="n" style="verticalLabelPosition=middle;verticalAlign=middle;html=1;shape=hexagon;perimeter=hexagonPerimeter2;arcSize=6;size=0.27;labelPosition=center;align=center;fillColor=#e1d5e7;strokeColor=#9673a6;fontSize=16;" parent="1" vertex="1">
          <mxGeometry x="-137.5" y="10" width="140" height="80" as="geometry" />
        </mxCell>
        <mxCell id="fAYxCIKbN-mQUrRIL_h8-16" style="edgeStyle=orthogonalEdgeStyle;rounded=0;orthogonalLoop=1;jettySize=auto;html=1;exitX=0.5;exitY=1;exitDx=0;exitDy=0;exitPerimeter=0;fillColor=#a20025;strokeColor=#6F0000;" parent="1" source="fAYxCIKbN-mQUrRIL_h8-17" edge="1">
          <mxGeometry relative="1" as="geometry">
            <mxPoint x="-77.5" y="-360" as="targetPoint" />
          </mxGeometry>
        </mxCell>
        <mxCell id="fAYxCIKbN-mQUrRIL_h8-17" value="&lt;font style=&quot;font-size: 20px;&quot;&gt;Inicio(giro)&lt;/font&gt;" style="strokeWidth=2;html=1;shape=mxgraph.flowchart.start_1;whiteSpace=wrap;fillColor=#f8cecc;strokeColor=#b85450;" parent="1" vertex="1">
          <mxGeometry x="-127.5" y="-440" width="100" height="60" as="geometry" />
        </mxCell>
        <mxCell id="fAYxCIKbN-mQUrRIL_h8-18" value="&lt;font style=&quot;font-size: 20px;&quot;&gt;Fin&lt;/font&gt;" style="strokeWidth=2;html=1;shape=mxgraph.flowchart.terminator;whiteSpace=wrap;fillColor=#f8cecc;strokeColor=#b85450;" parent="1" vertex="1">
          <mxGeometry x="-127.5" y="-180" width="100" height="60" as="geometry" />
        </mxCell>
        <mxCell id="fAYxCIKbN-mQUrRIL_h8-19" style="edgeStyle=orthogonalEdgeStyle;rounded=0;orthogonalLoop=1;jettySize=auto;html=1;exitX=0.5;exitY=1;exitDx=0;exitDy=0;exitPerimeter=0;" parent="1" source="fAYxCIKbN-mQUrRIL_h8-20" target="fAYxCIKbN-mQUrRIL_h8-13" edge="1">
          <mxGeometry relative="1" as="geometry" />
        </mxCell>
        <mxCell id="fAYxCIKbN-mQUrRIL_h8-20" value="&lt;font style=&quot;font-size: 20px;&quot;&gt;Inicio(no(n))&lt;/font&gt;" style="strokeWidth=2;html=1;shape=mxgraph.flowchart.start_1;whiteSpace=wrap;fillColor=#f8cecc;strokeColor=#b85450;" parent="1" vertex="1">
          <mxGeometry x="-147.5" y="-90" width="160" height="80" as="geometry" />
        </mxCell>
        <mxCell id="fAYxCIKbN-mQUrRIL_h8-21" value="&lt;font style=&quot;font-size: 20px;&quot;&gt;Fin&lt;/font&gt;" style="strokeWidth=2;html=1;shape=mxgraph.flowchart.terminator;whiteSpace=wrap;fillColor=#f8cecc;strokeColor=#b85450;" parent="1" vertex="1">
          <mxGeometry x="-117.5" y="180" width="100" height="60" as="geometry" />
        </mxCell>
        <mxCell id="fAYxCIKbN-mQUrRIL_h8-24" style="edgeStyle=orthogonalEdgeStyle;rounded=0;orthogonalLoop=1;jettySize=auto;html=1;exitX=0.5;exitY=1;exitDx=0;exitDy=0;entryX=0.5;entryY=0;entryDx=0;entryDy=0;" parent="1" source="fAYxCIKbN-mQUrRIL_h8-25" target="fAYxCIKbN-mQUrRIL_h8-27" edge="1">
          <mxGeometry relative="1" as="geometry" />
        </mxCell>
        <mxCell id="fAYxCIKbN-mQUrRIL_h8-25" value="&lt;span style=&quot;color: rgb(0, 0, 0); font-family: Helvetica; font-size: 20px; font-style: normal; font-variant-ligatures: normal; font-variant-caps: normal; font-weight: 400; letter-spacing: normal; orphans: 2; text-align: center; text-indent: 0px; text-transform: none; widows: 2; word-spacing: 0px; -webkit-text-stroke-width: 0px; background-color: rgb(251, 251, 251); text-decoration-thickness: initial; text-decoration-style: initial; text-decoration-color: initial; float: none; display: inline !important;&quot;&gt;giro()&lt;/span&gt;" style="verticalLabelPosition=middle;verticalAlign=middle;html=1;shape=process;whiteSpace=wrap;rounded=1;size=0.14;arcSize=50;labelPosition=center;align=center;" parent="1" vertex="1">
          <mxGeometry x="160" y="-40" width="150" height="40" as="geometry" />
        </mxCell>
        <mxCell id="fAYxCIKbN-mQUrRIL_h8-26" style="edgeStyle=orthogonalEdgeStyle;rounded=0;orthogonalLoop=1;jettySize=auto;html=1;exitX=0.5;exitY=1;exitDx=0;exitDy=0;entryX=0.5;entryY=0;entryDx=0;entryDy=0;" parent="1" source="fAYxCIKbN-mQUrRIL_h8-27" target="fAYxCIKbN-mQUrRIL_h8-29" edge="1">
          <mxGeometry relative="1" as="geometry" />
        </mxCell>
        <mxCell id="fAYxCIKbN-mQUrRIL_h8-27" value="&lt;span style=&quot;color: rgb(0, 0, 0); font-family: Helvetica; font-size: 20px; font-style: normal; font-variant-ligatures: normal; font-variant-caps: normal; font-weight: 400; letter-spacing: normal; orphans: 2; text-align: center; text-indent: 0px; text-transform: none; widows: 2; word-spacing: 0px; -webkit-text-stroke-width: 0px; background-color: rgb(251, 251, 251); text-decoration-thickness: initial; text-decoration-style: initial; text-decoration-color: initial; float: none; display: inline !important;&quot;&gt;no(3)&lt;/span&gt;" style="verticalLabelPosition=middle;verticalAlign=middle;html=1;shape=process;whiteSpace=wrap;rounded=1;size=0.14;arcSize=50;labelPosition=center;align=center;" parent="1" vertex="1">
          <mxGeometry x="160" y="20" width="150" height="40" as="geometry" />
        </mxCell>
        <mxCell id="fAYxCIKbN-mQUrRIL_h8-28" style="edgeStyle=orthogonalEdgeStyle;rounded=0;orthogonalLoop=1;jettySize=auto;html=1;exitX=0.5;exitY=1;exitDx=0;exitDy=0;entryX=0.5;entryY=0;entryDx=0;entryDy=0;" parent="1" source="fAYxCIKbN-mQUrRIL_h8-29" target="fAYxCIKbN-mQUrRIL_h8-31" edge="1">
          <mxGeometry relative="1" as="geometry" />
        </mxCell>
        <mxCell id="fAYxCIKbN-mQUrRIL_h8-29" value="&lt;span style=&quot;color: rgb(0, 0, 0); font-family: Helvetica; font-size: 20px; font-style: normal; font-variant-ligatures: normal; font-variant-caps: normal; font-weight: 400; letter-spacing: normal; orphans: 2; text-align: center; text-indent: 0px; text-transform: none; widows: 2; word-spacing: 0px; -webkit-text-stroke-width: 0px; background-color: rgb(251, 251, 251); text-decoration-thickness: initial; text-decoration-style: initial; text-decoration-color: initial; float: none; display: inline !important;&quot;&gt;giro(1)&lt;/span&gt;" style="verticalLabelPosition=middle;verticalAlign=middle;html=1;shape=process;whiteSpace=wrap;rounded=1;size=0.14;arcSize=50;labelPosition=center;align=center;" parent="1" vertex="1">
          <mxGeometry x="160" y="80" width="150" height="40" as="geometry" />
        </mxCell>
        <mxCell id="fAYxCIKbN-mQUrRIL_h8-57" style="edgeStyle=orthogonalEdgeStyle;rounded=0;orthogonalLoop=1;jettySize=auto;html=1;exitX=0.5;exitY=1;exitDx=0;exitDy=0;" parent="1" source="fAYxCIKbN-mQUrRIL_h8-31" target="fAYxCIKbN-mQUrRIL_h8-4" edge="1">
          <mxGeometry relative="1" as="geometry" />
        </mxCell>
        <mxCell id="fAYxCIKbN-mQUrRIL_h8-31" value="&lt;span style=&quot;color: rgb(0, 0, 0); font-family: Helvetica; font-size: 20px; font-style: normal; font-variant-ligatures: normal; font-variant-caps: normal; font-weight: 400; letter-spacing: normal; orphans: 2; text-align: center; text-indent: 0px; text-transform: none; widows: 2; word-spacing: 0px; -webkit-text-stroke-width: 0px; background-color: rgb(251, 251, 251); text-decoration-thickness: initial; text-decoration-style: initial; text-decoration-color: initial; float: none; display: inline !important;&quot;&gt;si(4)&lt;/span&gt;" style="verticalLabelPosition=middle;verticalAlign=middle;html=1;shape=process;whiteSpace=wrap;rounded=1;size=0.14;arcSize=50;labelPosition=center;align=center;" parent="1" vertex="1">
          <mxGeometry x="160" y="140" width="150" height="40" as="geometry" />
        </mxCell>
        <mxCell id="fAYxCIKbN-mQUrRIL_h8-34" style="edgeStyle=orthogonalEdgeStyle;rounded=0;orthogonalLoop=1;jettySize=auto;html=1;exitX=0.5;exitY=1;exitDx=0;exitDy=0;entryX=1;entryY=0.5;entryDx=0;entryDy=0;" parent="1" source="fAYxCIKbN-mQUrRIL_h8-35" target="fAYxCIKbN-mQUrRIL_h8-13" edge="1">
          <mxGeometry relative="1" as="geometry">
            <Array as="points">
              <mxPoint x="-67" y="160" />
              <mxPoint x="23" y="160" />
              <mxPoint x="23" y="50" />
            </Array>
          </mxGeometry>
        </mxCell>
        <mxCell id="fAYxCIKbN-mQUrRIL_h8-35" value="move();" style="rounded=1;whiteSpace=wrap;html=1;absoluteArcSize=1;arcSize=14;strokeWidth=2;fillColor=#e1d5e7;strokeColor=#9673a6;" parent="1" vertex="1">
          <mxGeometry x="-117.5" y="110" width="100" height="30" as="geometry" />
        </mxCell>
        <mxCell id="fAYxCIKbN-mQUrRIL_h8-36" style="edgeStyle=orthogonalEdgeStyle;rounded=0;orthogonalLoop=1;jettySize=auto;html=1;exitX=0;exitY=0.5;exitDx=0;exitDy=0;entryX=0.5;entryY=0;entryDx=0;entryDy=0;entryPerimeter=0;" parent="1" source="fAYxCIKbN-mQUrRIL_h8-9" target="fAYxCIKbN-mQUrRIL_h8-18" edge="1">
          <mxGeometry relative="1" as="geometry">
            <Array as="points">
              <mxPoint x="-167.5" y="-320" />
              <mxPoint x="-167.5" y="-190" />
              <mxPoint x="-77.5" y="-190" />
            </Array>
          </mxGeometry>
        </mxCell>
        <mxCell id="fAYxCIKbN-mQUrRIL_h8-37" style="edgeStyle=orthogonalEdgeStyle;rounded=0;orthogonalLoop=1;jettySize=auto;html=1;exitX=0;exitY=0.5;exitDx=0;exitDy=0;entryX=0.5;entryY=0;entryDx=0;entryDy=0;entryPerimeter=0;" parent="1" source="fAYxCIKbN-mQUrRIL_h8-13" target="fAYxCIKbN-mQUrRIL_h8-21" edge="1">
          <mxGeometry relative="1" as="geometry">
            <Array as="points">
              <mxPoint x="-157" y="50" />
              <mxPoint x="-157" y="170" />
              <mxPoint x="-67" y="170" />
            </Array>
          </mxGeometry>
        </mxCell>
        <mxCell id="fAYxCIKbN-mQUrRIL_h8-68" style="edgeStyle=orthogonalEdgeStyle;rounded=0;orthogonalLoop=1;jettySize=auto;html=1;exitX=0.5;exitY=1;exitDx=0;exitDy=0;exitPerimeter=0;" parent="1" source="fAYxCIKbN-mQUrRIL_h8-39" target="fAYxCIKbN-mQUrRIL_h8-61" edge="1">
          <mxGeometry relative="1" as="geometry" />
        </mxCell>
        <mxCell id="fAYxCIKbN-mQUrRIL_h8-39" value="&lt;font style=&quot;font-size: 20px;&quot;&gt;Inicio(si(n))&lt;/font&gt;" style="strokeWidth=2;html=1;shape=mxgraph.flowchart.start_1;whiteSpace=wrap;fillColor=#f8cecc;strokeColor=#b85450;" parent="1" vertex="1">
          <mxGeometry x="-147.5" y="320" width="160" height="80" as="geometry" />
        </mxCell>
        <mxCell id="fAYxCIKbN-mQUrRIL_h8-40" value="&lt;font style=&quot;font-size: 20px;&quot;&gt;Fin&lt;/font&gt;" style="strokeWidth=2;html=1;shape=mxgraph.flowchart.terminator;whiteSpace=wrap;fillColor=#f8cecc;strokeColor=#b85450;" parent="1" vertex="1">
          <mxGeometry x="-117.5" y="640" width="100" height="60" as="geometry" />
        </mxCell>
        <mxCell id="fAYxCIKbN-mQUrRIL_h8-56" style="edgeStyle=orthogonalEdgeStyle;rounded=0;orthogonalLoop=1;jettySize=auto;html=1;exitX=0.5;exitY=1;exitDx=0;exitDy=0;entryX=0.5;entryY=0;entryDx=0;entryDy=0;" parent="1" source="fAYxCIKbN-mQUrRIL_h8-46" target="fAYxCIKbN-mQUrRIL_h8-49" edge="1">
          <mxGeometry relative="1" as="geometry" />
        </mxCell>
        <mxCell id="fAYxCIKbN-mQUrRIL_h8-46" value="turnleft();" style="rounded=1;whiteSpace=wrap;html=1;absoluteArcSize=1;arcSize=14;strokeWidth=2;" parent="1" vertex="1">
          <mxGeometry x="185" y="-270" width="100" height="30" as="geometry" />
        </mxCell>
        <mxCell id="fAYxCIKbN-mQUrRIL_h8-48" style="edgeStyle=orthogonalEdgeStyle;rounded=0;orthogonalLoop=1;jettySize=auto;html=1;exitX=0.5;exitY=1;exitDx=0;exitDy=0;entryX=0.5;entryY=0;entryDx=0;entryDy=0;" parent="1" source="fAYxCIKbN-mQUrRIL_h8-49" target="fAYxCIKbN-mQUrRIL_h8-51" edge="1">
          <mxGeometry relative="1" as="geometry" />
        </mxCell>
        <mxCell id="fAYxCIKbN-mQUrRIL_h8-49" value="&lt;span style=&quot;color: rgb(0, 0, 0); font-family: Helvetica; font-size: 20px; font-style: normal; font-variant-ligatures: normal; font-variant-caps: normal; font-weight: 400; letter-spacing: normal; orphans: 2; text-align: center; text-indent: 0px; text-transform: none; widows: 2; word-spacing: 0px; -webkit-text-stroke-width: 0px; background-color: rgb(251, 251, 251); text-decoration-thickness: initial; text-decoration-style: initial; text-decoration-color: initial; float: none; display: inline !important;&quot;&gt;si(5)&lt;/span&gt;" style="verticalLabelPosition=middle;verticalAlign=middle;html=1;shape=process;whiteSpace=wrap;rounded=1;size=0.14;arcSize=50;labelPosition=center;align=center;" parent="1" vertex="1">
          <mxGeometry x="160" y="-220" width="150" height="40" as="geometry" />
        </mxCell>
        <mxCell id="fAYxCIKbN-mQUrRIL_h8-50" style="edgeStyle=orthogonalEdgeStyle;rounded=0;orthogonalLoop=1;jettySize=auto;html=1;exitX=0.5;exitY=1;exitDx=0;exitDy=0;entryX=0.5;entryY=0;entryDx=0;entryDy=0;" parent="1" source="fAYxCIKbN-mQUrRIL_h8-51" target="fAYxCIKbN-mQUrRIL_h8-52" edge="1">
          <mxGeometry relative="1" as="geometry" />
        </mxCell>
        <mxCell id="fAYxCIKbN-mQUrRIL_h8-51" value="&lt;span style=&quot;color: rgb(0, 0, 0); font-family: Helvetica; font-size: 20px; font-style: normal; font-variant-ligatures: normal; font-variant-caps: normal; font-weight: 400; letter-spacing: normal; orphans: 2; text-align: center; text-indent: 0px; text-transform: none; widows: 2; word-spacing: 0px; -webkit-text-stroke-width: 0px; background-color: rgb(251, 251, 251); text-decoration-thickness: initial; text-decoration-style: initial; text-decoration-color: initial; float: none; display: inline !important;&quot;&gt;giro()&lt;/span&gt;" style="verticalLabelPosition=middle;verticalAlign=middle;html=1;shape=process;whiteSpace=wrap;rounded=1;size=0.14;arcSize=50;labelPosition=center;align=center;" parent="1" vertex="1">
          <mxGeometry x="160" y="-160" width="150" height="40" as="geometry" />
        </mxCell>
        <mxCell id="fAYxCIKbN-mQUrRIL_h8-53" style="edgeStyle=orthogonalEdgeStyle;rounded=0;orthogonalLoop=1;jettySize=auto;html=1;exitX=0.5;exitY=1;exitDx=0;exitDy=0;entryX=0.5;entryY=0;entryDx=0;entryDy=0;" parent="1" source="fAYxCIKbN-mQUrRIL_h8-52" target="fAYxCIKbN-mQUrRIL_h8-25" edge="1">
          <mxGeometry relative="1" as="geometry" />
        </mxCell>
        <mxCell id="fAYxCIKbN-mQUrRIL_h8-52" value="&lt;span style=&quot;color: rgb(0, 0, 0); font-family: Helvetica; font-size: 20px; font-style: normal; font-variant-ligatures: normal; font-variant-caps: normal; font-weight: 400; letter-spacing: normal; orphans: 2; text-align: center; text-indent: 0px; text-transform: none; widows: 2; word-spacing: 0px; -webkit-text-stroke-width: 0px; background-color: rgb(251, 251, 251); text-decoration-thickness: initial; text-decoration-style: initial; text-decoration-color: initial; float: none; display: inline !important;&quot;&gt;no(4)&lt;/span&gt;" style="verticalLabelPosition=middle;verticalAlign=middle;html=1;shape=process;whiteSpace=wrap;rounded=1;size=0.14;arcSize=50;labelPosition=center;align=center;" parent="1" vertex="1">
          <mxGeometry x="160" y="-100" width="150" height="40" as="geometry" />
        </mxCell>
        <mxCell id="fAYxCIKbN-mQUrRIL_h8-60" style="edgeStyle=orthogonalEdgeStyle;rounded=0;orthogonalLoop=1;jettySize=auto;html=1;exitX=0.5;exitY=1;exitDx=0;exitDy=0;entryX=0.5;entryY=0;entryDx=0;entryDy=0;" parent="1" source="fAYxCIKbN-mQUrRIL_h8-61" target="fAYxCIKbN-mQUrRIL_h8-64" edge="1">
          <mxGeometry relative="1" as="geometry" />
        </mxCell>
        <mxCell id="fAYxCIKbN-mQUrRIL_h8-61" value="n" style="verticalLabelPosition=middle;verticalAlign=middle;html=1;shape=hexagon;perimeter=hexagonPerimeter2;arcSize=6;size=0.27;labelPosition=center;align=center;fillColor=#e1d5e7;strokeColor=#9673a6;fontSize=16;" parent="1" vertex="1">
          <mxGeometry x="-137.5" y="420" width="140" height="80" as="geometry" />
        </mxCell>
        <mxCell id="fAYxCIKbN-mQUrRIL_h8-64" value="putbeeper();" style="rounded=1;whiteSpace=wrap;html=1;absoluteArcSize=1;arcSize=14;strokeWidth=2;fillColor=#e1d5e7;strokeColor=#9673a6;" parent="1" vertex="1">
          <mxGeometry x="-117.5" y="520" width="100" height="30" as="geometry" />
        </mxCell>
        <mxCell id="fAYxCIKbN-mQUrRIL_h8-66" style="edgeStyle=orthogonalEdgeStyle;rounded=0;orthogonalLoop=1;jettySize=auto;html=1;exitX=0.5;exitY=1;exitDx=0;exitDy=0;entryX=1;entryY=0.5;entryDx=0;entryDy=0;" parent="1" source="fAYxCIKbN-mQUrRIL_h8-65" target="fAYxCIKbN-mQUrRIL_h8-61" edge="1">
          <mxGeometry relative="1" as="geometry">
            <Array as="points">
              <mxPoint x="-67" y="620" />
              <mxPoint x="23" y="620" />
              <mxPoint x="23" y="460" />
            </Array>
          </mxGeometry>
        </mxCell>
        <mxCell id="fAYxCIKbN-mQUrRIL_h8-65" value="move();" style="rounded=1;whiteSpace=wrap;html=1;absoluteArcSize=1;arcSize=14;strokeWidth=2;fillColor=#e1d5e7;strokeColor=#9673a6;" parent="1" vertex="1">
          <mxGeometry x="-117.5" y="569.5" width="100" height="30" as="geometry" />
        </mxCell>
        <mxCell id="fAYxCIKbN-mQUrRIL_h8-67" style="edgeStyle=orthogonalEdgeStyle;rounded=0;orthogonalLoop=1;jettySize=auto;html=1;exitX=0;exitY=0.5;exitDx=0;exitDy=0;entryX=0.5;entryY=0;entryDx=0;entryDy=0;entryPerimeter=0;" parent="1" source="fAYxCIKbN-mQUrRIL_h8-61" target="fAYxCIKbN-mQUrRIL_h8-40" edge="1">
          <mxGeometry relative="1" as="geometry">
            <Array as="points">
              <mxPoint x="-157" y="460" />
              <mxPoint x="-157" y="630" />
              <mxPoint x="-67" y="630" />
            </Array>
          </mxGeometry>
        </mxCell>
      </root>
    </mxGraphModel>
  </diagram>
</mxfile>
